<svg width="64" height="71" viewBox="0 0 64 71" fill="none" xmlns="http://www.w3.org/2000/svg">
<path d="M62.9389 0.536475C62.1209 0.409035 60.8694 5.59776 58.3707 13.6273C56.9299 18.2828 55.1618 22.8307 53.0796 27.2369C50.5672 32.5268 47.3211 37.4359 43.4372 41.819C39.5543 46.1297 34.9147 49.6928 29.7481 52.3321C25.4565 54.5734 20.9665 56.4125 16.3358 57.8258C13.0076 58.8309 10.1569 59.5104 7.95692 60.0256C8.50929 59.3194 9.04444 58.6226 9.54365 57.9483C10.8357 56.2035 11.9398 54.5819 12.8048 53.1674C14.5349 50.3384 15.3087 48.3375 14.7162 47.8354C14.1237 47.3333 12.277 48.4251 9.77027 50.596C8.51692 51.6815 7.09852 53.0368 5.58943 54.5976C4.83491 55.378 4.05769 56.2097 3.26704 57.0848C2.87532 57.5255 2.47705 57.9735 2.07221 58.429L1.46943 59.1235C1.34712 59.2713 1.33015 59.2722 1.06562 59.6095C0.883396 59.8491 0.730706 60.1099 0.610855 60.386C0.403722 60.862 0.312501 61.3803 0.344694 61.8984C0.376886 62.4165 0.531571 62.9196 0.796033 63.3662C0.964901 63.6528 1.1725 63.9147 1.41297 64.1445C1.55504 64.2811 1.70592 64.4082 1.86463 64.525L2.11628 64.704C2.43128 64.9228 2.74708 65.1228 3.06007 65.3067C3.65099 65.6487 4.25945 65.9595 4.88294 66.2377C6.0586 66.7612 7.07838 67.1472 8.10212 67.5406C10.1326 68.3093 11.9933 68.9307 13.5898 69.3784C16.7827 70.2738 18.9187 70.4743 19.2406 69.7675C19.5626 69.0607 18.0098 67.5806 15.2388 65.7589C13.8533 64.848 12.1634 63.8518 10.251 62.8241C10.0532 62.721 9.84535 62.6126 9.64357 62.5073C12.2028 62.4253 14.7524 62.1527 17.2712 61.6917C22.374 60.7491 27.3374 59.1657 32.0434 56.9791C37.9633 54.2981 43.2638 50.4203 47.6112 45.5897C51.8842 40.7862 55.3283 35.3052 57.8026 29.3714C59.7875 24.6155 61.2704 19.6654 62.2271 14.6015C63.8101 6.01535 63.6533 0.638885 62.9389 0.536475Z" fill="#468E0D"/>
</svg>
