<?xml version="1.0" encoding="UTF-8" standalone="no"?>
<svg
   width="26"
   height="26"
   viewBox="0 0 26 26"
   fill="none"
   version="1.1"
   id="svg4"
   sodipodi:docname="twitter.svg"
   xml:space="preserve"
   inkscape:version="1.2.1 (9c6d41e410, 2022-07-14, custom)"
   xmlns:inkscape="http://www.inkscape.org/namespaces/inkscape"
   xmlns:sodipodi="http://sodipodi.sourceforge.net/DTD/sodipodi-0.dtd"
   xmlns="http://www.w3.org/2000/svg"
   xmlns:svg="http://www.w3.org/2000/svg"><defs
     id="defs8" /><sodipodi:namedview
     id="namedview6"
     pagecolor="#ffffff"
     bordercolor="#000000"
     borderopacity="0.25"
     inkscape:showpageshadow="2"
     inkscape:pageopacity="0.0"
     inkscape:pagecheckerboard="0"
     inkscape:deskcolor="#d1d1d1"
     showgrid="false"
     inkscape:zoom="28.576923"
     inkscape:cx="12.930013"
     inkscape:cy="13"
     inkscape:window-width="1920"
     inkscape:window-height="1006"
     inkscape:window-x="0"
     inkscape:window-y="0"
     inkscape:window-maximized="1"
     inkscape:current-layer="g337" /><g
     style="fill:none"
     id="g337"
     transform="translate(4.6769653,5.7239917)"><circle
       cx="13"
       cy="13"
       r="13"
       fill="#C4C4C4"
       fill-opacity="0.5"
       id="circle2"
       transform="translate(-4.6769653,-5.7239917)" /><path
       fill-rule="evenodd"
       clip-rule="evenodd"
       d="m 16.323035,1.9331383 c -0.5886,0.28108 -1.2213,0.47124 -1.8853,0.55664 0.6776,-0.43754 1.1983,-1.13005 1.4432,-1.955503 -0.6342,0.405033 -1.3368,0.699256 -2.0845,0.857773 -0.5987,-0.686978 -1.4518,-1.11604 -2.396,-1.11604 -1.81276,0 -3.2825203,1.58227 -3.2825203,3.53414 0,0.27694 0.02896,0.54679 0.08496,0.80557 -2.72816,-0.14745 -5.14688,-1.55461 -6.76592,-3.693006 -0.28256,0.522066 -0.44448,1.129186 -0.44448,1.776926 0,1.22616 0.57952,2.30798 1.46032,2.94189 -0.53808,-0.0185 -1.04432,-0.17736 -1.48672,-0.44203 -3.2e-4,0.01452 -3.2e-4,0.02939 -3.2e-4,0.04426 0,1.71244 1.13152,3.14086 2.63312,3.46568 -0.27536,0.08073 -0.56544,0.12412 -0.8648,0.12412 -0.21152,0 -0.41712,-0.0223 -0.6176,-0.06361 0.41776,1.4040397 1.62992,2.4260597 3.0664,2.4545597 -1.12336,0.9479 -2.53888,1.513 -4.0768,1.513 -0.26496,0 -0.52624,-0.0168 -0.78304,-0.0495 1.45264,1.0028 3.17824,1.588 5.03184,1.588 6.0379603,0 9.3396603,-5.3855697 9.3396603,-10.0559897 0,-0.15333 -0.0032,-0.3058 -0.0094,-0.45741 0.6414,-0.49821 1.1979,-1.12071 1.6379,-1.82947 z"
       fill="#ffffff"
       id="path328"
       style="fill:#ffffff" /></g></svg>
