<?xml version="1.0" encoding="UTF-8" standalone="no"?>
<svg
   width="26"
   height="26"
   viewBox="0 0 26 26"
   fill="none"
   version="1.1"
   id="svg4"
   sodipodi:docname="youtube.svg"
   xml:space="preserve"
   inkscape:version="1.2.1 (9c6d41e410, 2022-07-14, custom)"
   xmlns:inkscape="http://www.inkscape.org/namespaces/inkscape"
   xmlns:sodipodi="http://sodipodi.sourceforge.net/DTD/sodipodi-0.dtd"
   xmlns="http://www.w3.org/2000/svg"
   xmlns:svg="http://www.w3.org/2000/svg"><defs
     id="defs8" /><sodipodi:namedview
     id="namedview6"
     pagecolor="#ffffff"
     bordercolor="#000000"
     borderopacity="0.25"
     inkscape:showpageshadow="2"
     inkscape:pageopacity="0.0"
     inkscape:pagecheckerboard="0"
     inkscape:deskcolor="#d1d1d1"
     showgrid="false"
     inkscape:zoom="28.576923"
     inkscape:cx="12.930013"
     inkscape:cy="13"
     inkscape:window-width="1920"
     inkscape:window-height="1006"
     inkscape:window-x="0"
     inkscape:window-y="0"
     inkscape:window-maximized="1"
     inkscape:current-layer="g286" /><g
     style="fill:none"
     id="g286"
     transform="translate(4.854631,5.8742514)"><circle
       cx="13"
       cy="13"
       r="13"
       fill="#C4C4C4"
       fill-opacity="0.5"
       id="circle2"
       transform="translate(-4.854631,-5.8742514)" /><path
       fill-rule="evenodd"
       clip-rule="evenodd"
       d="m 11.15157,6.5985988 -4.512401,-2.25566 c 0,0 -1.25341,-0.56993 -1.25341,0.50145 V 9.856719 c 0,0 0.02319,0.76453 1.25341,0.25051 0.85598,-0.35777 4.512401,-2.2556602 4.512401,-2.2556602 0,0 0.9329,-0.59766 0,-1.25297 z m 5.5151,5.0123502 c -0.5589,1.5897 -1.7544,1.7945 -2.7576,2.0049 -1.4785,0.3101 -10.991331,0.2711 -12.534481,-0.2507 -0.96216001,-0.3253 -1.55418801,-0.4653 -2.00536301,-2.75669 -0.2888649,-1.4662102 -0.3079348,-5.7796702 0,-7.2677702 0.298183,-1.44086 1.047103,-2.117406 2.50681301,-2.255662 3.92081,-0.37142901 10.474331,-0.31898651 12.534331,0 1.9098,0.295583 2.3089,1.434572 2.507,2.506172 0.3207,1.73492 0.3584,6.2869802 -0.2507,8.0197502 z"
       fill="#ffffff"
       id="path277"
       style="fill:#ffffff" /></g></svg>
