<?xml version="1.0" encoding="UTF-8" standalone="no"?>
<svg
   width="26"
   height="26"
   viewBox="0 0 26 26"
   fill="none"
   version="1.1"
   id="svg4"
   sodipodi:docname="instagram.svg"
   xml:space="preserve"
   inkscape:version="1.2.1 (9c6d41e410, 2022-07-14, custom)"
   xmlns:inkscape="http://www.inkscape.org/namespaces/inkscape"
   xmlns:sodipodi="http://sodipodi.sourceforge.net/DTD/sodipodi-0.dtd"
   xmlns="http://www.w3.org/2000/svg"
   xmlns:svg="http://www.w3.org/2000/svg"><defs
     id="defs8" /><sodipodi:namedview
     id="namedview6"
     pagecolor="#ffffff"
     bordercolor="#000000"
     borderopacity="0.25"
     inkscape:showpageshadow="2"
     inkscape:pageopacity="0.0"
     inkscape:pagecheckerboard="0"
     inkscape:deskcolor="#d1d1d1"
     showgrid="false"
     inkscape:zoom="28.576923"
     inkscape:cx="12.930013"
     inkscape:cy="13"
     inkscape:window-width="1920"
     inkscape:window-height="1006"
     inkscape:window-x="0"
     inkscape:window-y="0"
     inkscape:window-maximized="1"
     inkscape:current-layer="g190" /><g
     style="fill:none"
     id="g190"
     transform="translate(5.4224035,4.4465999)"><circle
       cx="13"
       cy="13"
       r="13"
       fill="#C4C4C4"
       fill-opacity="0.5"
       id="circle2"
       transform="translate(-5.4224035,-4.4465999)" /><path
       fill-rule="evenodd"
       clip-rule="evenodd"
       d="m 4.2793165,0.6016875 c -0.85162,0.0387157 -1.43309,0.1738636 -1.94198,0.3717276 -0.52617,0.204293 -0.97206,0.478017 -1.4168,0.922745 -0.445027,0.44473 -0.718472,0.89075 -0.922771,1.41691 -0.197869,0.50902 -0.3331636,1.09047 -0.3718803,1.94193 -0.0390024,0.85331 -0.0482887,1.12561 -0.0482887,3.2984 0,2.1727999 0.009286,2.4448999 0.0482887,3.2983999 0.0387167,0.8515 0.1740113,1.4329 0.3718803,1.9416 0.204299,0.5262 0.477744,0.9725 0.922771,1.4171 0.44474,0.4449 0.89063,0.7183 1.4168,0.9229 0.50889,0.1979 1.09036,0.333 1.94198,0.3717 0.85334,0.039 1.12564,0.0483 3.29835,0.0483 2.17283,0 2.4451305,-0.0093 3.2985305,-0.0483 0.8514,-0.0387 1.4329,-0.1738 1.9421,-0.3717 0.5257,-0.2046 0.972,-0.478 1.4168,-0.9229 0.4447,-0.4446 0.718,-0.8909 0.9226,-1.4171 0.197699,-0.5087 0.3332,-1.0901 0.3719,-1.9416 0.039,-0.8535 0.048,-1.1256 0.048,-3.2983999 0,-2.17279 -0.009,-2.44509 -0.048,-3.2984 -0.0387,-0.85146 -0.174201,-1.43291 -0.3719,-1.94193 -0.2046,-0.52616 -0.4779,-0.97218 -0.9226,-1.41691 -0.4448,-0.444728 -0.8911,-0.718452 -1.4168,-0.922745 -0.5092,-0.197864 -1.0907,-0.3330119 -1.9421,-0.3717276 -0.8534,-0.0388585 -1.1257005,-0.0482874 -3.2985305,-0.0482874 -2.17271,0 -2.44501,0.009429 -3.29835,0.0482874 z M 4.3450665,15.065 c -0.78005,-0.0355 -1.20365,-0.1655 -1.48538,-0.2752 -0.37359,-0.1454 -0.63989,-0.3187 -0.91991,-0.5986 -0.28002,-0.2798 -0.45332,-0.5463 -0.59861,-0.9197 -0.10958,-0.2819 -0.23973,-0.7055 -0.27545,-1.4855 -0.03843,-0.8436 -0.04671,-1.0967 -0.04671,-3.2326799 0,-2.13622 0.00828,-2.38909 0.04671,-3.23283 0.03572,-0.77989 0.16587,-1.20347 0.27545,-1.48534 0.14529,-0.37344 0.31859,-0.64002 0.59861,-0.91989 0.28002,-0.27987 0.54632,-0.45345 0.91991,-0.59831 0.28173,-0.10957 0.70533,-0.23986 1.48538,-0.27558 0.84348,-0.03843 1.09664,-0.04657 3.23263,-0.04657 2.136,0 2.389,0.00814 3.2329005,0.04657 0.7798,0.03572 1.2034,0.16601 1.4854,0.27558 0.3734,0.14486 0.6399,0.31844 0.9198,0.59831 0.28,0.27987 0.4531,0.54645 0.5984,0.91989 0.1096,0.28187 0.2399,0.70545 0.2756,1.48534 0.0385,0.84374 0.0463,1.09661 0.0463,3.23283 0,2.1359799 -0.0078,2.3890799 -0.0463,3.2326799 -0.0357,0.78 -0.166,1.2036 -0.2756,1.4855 -0.1453,0.3734 -0.3184,0.6399 -0.5984,0.9197 -0.2799,0.2799 -0.5464,0.4532 -0.9198,0.5986 -0.282,0.1097 -0.7056,0.2397 -1.4854,0.2752 -0.8436005,0.0387 -1.0966005,0.0467 -3.2329005,0.0467 -2.13599,0 -2.38915,-0.008 -3.23263,-0.0467 z M 10.888097,4.2828301 c 0,0.53002 0.4298,0.96004 0.9601,0.96004 0.5302,0 0.9599,-0.43002 0.9599,-0.96004 0,-0.5303 -0.429701,-0.95989 -0.9599,-0.95989 -0.5303,0 -0.9601,0.42959 -0.9601,0.95989 z m -7.4189005,4.27074 c 0,2.2689299 1.8394,4.1080299 4.10826,4.1080299 2.26904,0 4.1081405,-1.8391 4.1081405,-4.1080299 0,-2.26893 -1.8391005,-4.10814 -4.1081405,-4.10814 -2.26886,0 -4.10826,1.83921 -4.10826,4.10814 z m 1.44238,-8e-5 c 0,-1.47277 1.19379,-2.66666 2.6666,-2.66666 1.47281,0 2.6667195,1.19389 2.6667195,2.66666 0,1.4729099 -1.1939095,2.6667099 -2.6667195,2.6667099 -1.47281,0 -2.6666,-1.1938 -2.6666,-2.6667099 z"
       fill="#ffffff"
       id="path181"
       style="fill:#ffffff" /></g></svg>
